<svg xmlns="http://www.w3.org/2000/svg" viewBox="0 0 512 512">
  <defs>
    <linearGradient id="bg" x1="0%" y1="0%" x2="100%" y2="100%">
      <stop offset="0%" stop-color="#ffcfbf" />
      <stop offset="100%" stop-color="#d65b7d" />
    </linearGradient>
  </defs>
  <rect width="512" height="512" rx="128" fill="url(#bg)" />
  <circle cx="256" cy="256" r="140" fill="#fff8f3" opacity="0.95" />
  <path
    d="M257 142c39 0 73 27 82 65 9 37-8 81-49 131-15 18-24 33-28 45-3-12-12-27-27-45-41-50-58-94-49-131 9-38 43-65 81-65 17 0 34 5 48 16 14-11 30-16 42-16z"
    fill="#d65b7d"
  />
</svg>
